<svg xmlns="http://www.w3.org/2000/svg" xmlns:xlink="http://www.w3.org/1999/xlink" xmlns:lucid="lucid" width="1760" height="1360"><g transform="translate(0 0)" lucid:page-tab-id="0_0"><path d="M453.15 76c0-4.42 3.58-8 8-8h836.75c4.4 0 8 3.58 8 8v25.16c0 4.4-3.6 8-8 8H461.15c-4.42 0-8-3.6-8-8z" stroke="#000" stroke-opacity="0" stroke-width="2" fill="#fff" fill-opacity="0"/><use xlink:href="#a" transform="matrix(1,0,0,1,457.1465527853429,71.99999999994924) translate(403.9945679012346 25.782777777777778)"/><path d="M628.64 107.8h505.86M628.66 107.8h-1.02M1134.47 107.8h1.03" stroke="#a9afb8" stroke-width="2" fill="none"/><path d="M453.15 117.16c0-4.42 3.58-8 8-8h837.7c4.42 0 8 3.58 8 8V120c0 4.42-3.58 8-8 8h-837.7c-4.42 0-8-3.58-8-8z" stroke="#000" stroke-opacity="0" stroke-width="2" fill="#fff" fill-opacity="0"/><use xlink:href="#b" transform="matrix(1,0,0,1,457.1465527853434,113.15522395684805) translate(335.1908127572016 14.917037037037037)"/><use xlink:href="#c" transform="matrix(1,0,0,1,457.1465527853434,113.15522395684805) translate(370.83968106995883 14.917037037037037)"/><use xlink:href="#d" transform="matrix(1,0,0,1,457.1465527853434,113.15522395684805) translate(383.28916666666663 14.917037037037037)"/><use xlink:href="#e" transform="matrix(1,0,0,1,457.1465527853434,113.15522395684805) translate(457.9435905349794 14.917037037037037)"/><use xlink:href="#f" transform="matrix(1,0,0,1,457.1465527853434,113.15522395684805) translate(483.43741769547324 14.917037037037037)"/><path d="M280 505c0-2.76 2.24-5 5-5h270c2.76 0 5 2.24 5 5v150c0 2.76-2.24 5-5 5H285c-2.76 0-5-2.24-5-5z" fill="#fff"/><path d="M280 460h280v40H280z" fill="#f5b5c8"/><path d="M280 465c0-2.76 2.24-5 5-5h270c2.76 0 5 2.24 5 5v190c0 2.76-2.24 5-5 5H285c-2.76 0-5-2.24-5-5zM280 500h280M420 500v160" stroke="#333" fill="none"/><use xlink:href="#g" transform="matrix(1,0,0,1,290,460) translate(81.1 23.6)"/><use xlink:href="#h" transform="matrix(1,0,0,1,285,502.5) translate(0 17.1)"/><use xlink:href="#i" transform="matrix(1,0,0,1,425,502.5) translate(0 17.1)"/><use xlink:href="#j" transform="matrix(1,0,0,1,425,502.5) translate(23.95 17.1)"/><use xlink:href="#k" transform="matrix(1,0,0,1,425,502.5) translate(52.95 17.1)"/><use xlink:href="#l" transform="matrix(1,0,0,1,285,534.5) translate(0 17.1)"/><use xlink:href="#i" transform="matrix(1,0,0,1,425,534.5) translate(0 17.1)"/><use xlink:href="#j" transform="matrix(1,0,0,1,425,534.5) translate(23.95 17.1)"/><use xlink:href="#k" transform="matrix(1,0,0,1,425,534.5) translate(52.95 17.1)"/><use xlink:href="#m" transform="matrix(1,0,0,1,285,566.5) translate(0 17.1)"/><use xlink:href="#i" transform="matrix(1,0,0,1,425,566.5) translate(0 17.1)"/><use xlink:href="#j" transform="matrix(1,0,0,1,425,566.5) translate(23.95 17.1)"/><use xlink:href="#k" transform="matrix(1,0,0,1,425,566.5) translate(52.95 17.1)"/><use xlink:href="#n" transform="matrix(1,0,0,1,285,598.5) translate(0 17.1)"/><use xlink:href="#o" transform="matrix(1,0,0,1,425,598.5) translate(0 17.1)"/><use xlink:href="#j" transform="matrix(1,0,0,1,425,598.5) translate(40 17.1)"/><use xlink:href="#k" transform="matrix(1,0,0,1,425,598.5) translate(69 17.1)"/><use xlink:href="#p" transform="matrix(1,0,0,1,285,630.5) translate(0 17.1)"/><use xlink:href="#q" transform="matrix(1,0,0,1,425,630.5) translate(0 17.1)"/><path d="M1340 505c0-2.76 2.24-5 5-5h270c2.76 0 5 2.24 5 5v86c0 2.76-2.24 5-5 5h-270c-2.76 0-5-2.24-5-5z" fill="#fff"/><path d="M1340 460h280v40h-280z" fill="#f5b5c8"/><path d="M1340 465c0-2.76 2.24-5 5-5h270c2.76 0 5 2.24 5 5v126c0 2.76-2.24 5-5 5h-270c-2.76 0-5-2.24-5-5zM1340 500h280M1480 500v96" stroke="#333" fill="none"/><use xlink:href="#r" transform="matrix(1,0,0,1,1350,460) translate(53.224999999999994 23.6)"/><use xlink:href="#h" transform="matrix(1,0,0,1,1345,502.5) translate(0 17.1)"/><use xlink:href="#i" transform="matrix(1,0,0,1,1485,502.5) translate(0 17.1)"/><use xlink:href="#j" transform="matrix(1,0,0,1,1485,502.5) translate(23.95 17.1)"/><use xlink:href="#k" transform="matrix(1,0,0,1,1485,502.5) translate(52.95 17.1)"/><use xlink:href="#m" transform="matrix(1,0,0,1,1345,534.5) translate(0 17.1)"/><use xlink:href="#i" transform="matrix(1,0,0,1,1485,534.5) translate(0 17.1)"/><use xlink:href="#j" transform="matrix(1,0,0,1,1485,534.5) translate(23.95 17.1)"/><use xlink:href="#k" transform="matrix(1,0,0,1,1485,534.5) translate(52.95 17.1)"/><use xlink:href="#s" transform="matrix(1,0,0,1,1345,566.5) translate(0 17.1)"/><use xlink:href="#o" transform="matrix(1,0,0,1,1485,566.5) translate(0 17.1)"/><use xlink:href="#j" transform="matrix(1,0,0,1,1485,566.5) translate(40 17.1)"/><use xlink:href="#k" transform="matrix(1,0,0,1,1485,566.5) translate(69 17.1)"/><path d="M820 843.5c0-2.76 2.24-5 5-5h270c2.76 0 5 2.24 5 5v86c0 2.76-2.24 5-5 5H825c-2.76 0-5-2.24-5-5z" fill="#fff"/><path d="M820 798.5h280v40H820z" fill="#c1e4f7"/><path d="M820 803.5c0-2.76 2.24-5 5-5h270c2.76 0 5 2.24 5 5v126c0 2.76-2.24 5-5 5H825c-2.76 0-5-2.24-5-5zM820 838.5h280M960 838.5v96" stroke="#333" fill="none"/><use xlink:href="#t" transform="matrix(1,0,0,1,830,798.4990424361728) translate(82.07499999999999 23.6)"/><use xlink:href="#m" transform="matrix(1,0,0,1,825,840.9990424361728) translate(0 17.1)"/><use xlink:href="#i" transform="matrix(1,0,0,1,965,840.9990424361728) translate(0 17.1)"/><use xlink:href="#u" transform="matrix(1,0,0,1,965,840.9990424361728) translate(23.95 17.1)"/><use xlink:href="#v" transform="matrix(1,0,0,1,825,872.9990424361728) translate(0 17.1)"/><use xlink:href="#w" transform="matrix(1,0,0,1,965,872.9990424361728) translate(0 17.1)"/><use xlink:href="#x" transform="matrix(1,0,0,1,825,904.9990424361728) translate(0 17.1)"/><use xlink:href="#y" transform="matrix(1,0,0,1,965,904.9990424361728) translate(0 17.1)"/><path d="M1120.5 854.5H1468c6.63 0 12-5.37 12-12V636" stroke="#333" fill="none"/><path d="M1110.5 864.5v-20M1100.5 854.5h20M1120.5 864.5v-20" stroke="#333" fill="#fff"/><path d="M1490 596.72l-10 20-10-20" stroke="#333" fill="#fff" fill-opacity="0"/><path d="M1480 596.72v20M1490 626.72c0 5.53-4.48 10-10 10s-10-4.47-10-10c0-5.52 4.48-10 10-10s10 4.48 10 10" stroke="#333" fill="#fff"/><path d="M799.5 854.5H432c-6.63 0-12-5.37-12-12V700" stroke="#333" fill="none"/><path d="M809.5 844.5v20M819.5 854.5h-20M799.5 844.5v20" stroke="#333" fill="#fff"/><path d="M430 660.72l-10 20-10-20" stroke="#333" fill="#fff" fill-opacity="0"/><path d="M420 660.72v20M430 690.72c0 5.53-4.48 10-10 10s-10-4.47-10-10c0-5.52 4.48-10 10-10s10 4.48 10 10" stroke="#333" fill="#fff"/><path d="M800 225c0-2.76 2.24-5 5-5h270c2.76 0 5 2.24 5 5v150c0 2.76-2.24 5-5 5H805c-2.76 0-5-2.24-5-5z" fill="#fff"/><path d="M800 180h280v40H800z" fill="#c1e4f7"/><path d="M800 185c0-2.76 2.24-5 5-5h270c2.76 0 5 2.24 5 5v190c0 2.76-2.24 5-5 5H805c-2.76 0-5-2.24-5-5zM800 220h280M940 220v160" stroke="#333" fill="none"/><use xlink:href="#z" transform="matrix(1,0,0,1,810,180) translate(85.57499999999999 23.6)"/><use xlink:href="#A" transform="matrix(1,0,0,1,805,222.5) translate(0 17.1)"/><use xlink:href="#B" transform="matrix(1,0,0,1,945,222.5) translate(0 17.1)"/><use xlink:href="#C" transform="matrix(1,0,0,1,945,222.5) translate(40 17.1)"/><use xlink:href="#D" transform="matrix(1,0,0,1,805,254.5) translate(0 17.1)"/><use xlink:href="#q" transform="matrix(1,0,0,1,945,254.5) translate(0 17.1)"/><use xlink:href="#E" transform="matrix(1,0,0,1,805,286.5) translate(0 17.1)"/><use xlink:href="#q" transform="matrix(1,0,0,1,945,286.5) translate(0 17.1)"/><use xlink:href="#F" transform="matrix(1,0,0,1,805,318.5) translate(0 17.1)"/><use xlink:href="#q" transform="matrix(1,0,0,1,945,318.5) translate(0 17.1)"/><use xlink:href="#G" transform="matrix(1,0,0,1,805,350.5) translate(0 17.1)"/><use xlink:href="#q" transform="matrix(1,0,0,1,945,350.5) translate(0 17.1)"/><path d="M940 159.5v-8c0-6.63-5.37-12-12-12H432c-6.63 0-12 5.37-12 12V420" stroke="#333" fill="none"/><path d="M950 169.5h-20M940 179.5v-20M950 159.5h-20" stroke="#333" fill="#fff"/><path d="M410 459.28l10-20 10 20" stroke="#333" fill="#fff" fill-opacity="0"/><path d="M420 459.28v-20M430 429.28c0 5.52-4.48 10-10 10s-10-4.48-10-10c0-5.53 4.48-10 10-10s10 4.47 10 10" stroke="#333" fill="#fff"/><path d="M940 159.5v-8c0-6.63 5.37-12 12-12h516c6.63 0 12 5.37 12 12V420" stroke="#333" fill="none"/><path d="M950 169.5h-20M940 179.5v-20M950 159.5h-20" stroke="#333" fill="#fff"/><path d="M1470 459.28l10-20 10 20" stroke="#333" fill="#fff" fill-opacity="0"/><path d="M1480 459.28v-20M1490 429.28c0 5.52-4.48 10-10 10s-10-4.48-10-10c0-5.53 4.48-10 10-10s10 4.47 10 10" stroke="#333" fill="#fff"/><path d="M800 505c0-2.76 2.24-5 5-5h270c2.76 0 5 2.24 5 5v118c0 2.76-2.24 5-5 5H805c-2.76 0-5-2.24-5-5z" fill="#fff"/><path d="M800 460h280v40H800z" fill="#c1e4f7"/><path d="M800 465c0-2.76 2.24-5 5-5h270c2.76 0 5 2.24 5 5v158c0 2.76-2.24 5-5 5H805c-2.76 0-5-2.24-5-5zM800 500h280M961.03 500v128" stroke="#333" fill="none"/><use xlink:href="#H" transform="matrix(1,0,0,1,810,460) translate(70.64999999999999 23.6)"/><use xlink:href="#h" transform="matrix(1,0,0,1,805,502.5) translate(0 17.1)"/><use xlink:href="#i" transform="matrix(1,0,0,1,966.032738095238,502.5) translate(0 17.1)"/><use xlink:href="#u" transform="matrix(1,0,0,1,966.032738095238,502.5) translate(23.95 17.1)"/><use xlink:href="#I" transform="matrix(1,0,0,1,805,534.5) translate(0 17.1)"/><use xlink:href="#y" transform="matrix(1,0,0,1,966.032738095238,534.5) translate(0 17.1)"/><use xlink:href="#J" transform="matrix(1,0,0,1,805,566.5) translate(0 17.1)"/><use xlink:href="#y" transform="matrix(1,0,0,1,966.032738095238,566.5) translate(0 17.1)"/><use xlink:href="#K" transform="matrix(1,0,0,1,805,598.5) translate(0 17.1)"/><use xlink:href="#y" transform="matrix(1,0,0,1,966.032738095238,598.5) translate(0 17.1)"/><path d="M600 548h79.98s.02 0 .02-.02c0 0 0-.02.02-.02h99.48" stroke="#333" fill="none"/><path d="M560.72 538l20 10-20 10" stroke="#333" fill="#fff" fill-opacity="0"/><path d="M560.72 548h20M600.72 548c0 5.52-4.47 10-10 10-5.52 0-10-4.48-10-10s4.48-10 10-10c5.53 0 10 4.48 10 10M789.5 537.96v20M799.5 547.96h-20M779.5 537.96v20" stroke="#333" fill="#fff"/><path d="M1100.5 548H1300" stroke="#333" fill="none"/><path d="M1090.5 558v-20M1080.5 548h20M1100.5 558v-20" stroke="#333" fill="#fff"/><path d="M1339.28 558l-20-10 20-10" stroke="#333" fill="#fff" fill-opacity="0"/><path d="M1339.28 548h-20M1319.28 548c0 5.52-4.48 10-10 10-5.53 0-10-4.48-10-10s4.47-10 10-10c5.52 0 10 4.48 10 10" stroke="#333" fill="#fff"/><path d="M80 245c0-2.76 2.24-5 5-5h270c2.76 0 5 2.24 5 5v86c0 2.76-2.24 5-5 5H85c-2.76 0-5-2.24-5-5z" fill="#fff"/><path d="M80 200h280v40H80z" fill="#c1e4f7"/><path d="M80 205c0-2.76 2.24-5 5-5h270c2.76 0 5 2.24 5 5v126c0 2.76-2.24 5-5 5H85c-2.76 0-5-2.24-5-5zM80 240h280M241.03 240v96" stroke="#333" fill="none"/><use xlink:href="#L" transform="matrix(1,0,0,1,90,200) translate(80.57499999999999 23.6)"/><use xlink:href="#M" transform="matrix(1,0,0,1,85,242.5) translate(0 17.1)"/><use xlink:href="#i" transform="matrix(1,0,0,1,246.03273809523796,242.5) translate(0 17.1)"/><use xlink:href="#u" transform="matrix(1,0,0,1,246.03273809523796,242.5) translate(23.95 17.1)"/><use xlink:href="#N" transform="matrix(1,0,0,1,85,274.5) translate(0 17.1)"/><use xlink:href="#O" transform="matrix(1,0,0,1,246.03273809523796,274.5) translate(0 17.1)"/><use xlink:href="#v" transform="matrix(1,0,0,1,85,306.5) translate(0 17.1)"/><use xlink:href="#w" transform="matrix(1,0,0,1,246.03273809523796,306.5) translate(0 17.1)"/><path d="M220 356.5V568c0 6.63 5.37 12 12 12h8" stroke="#333" fill="none"/><path d="M210 346.5h20M220 336.5v20M210 356.5h20" stroke="#333" fill="#fff"/><path d="M279.28 590l-20-10 20-10" stroke="#333" fill="#fff" fill-opacity="0"/><path d="M279.28 580h-20M259.28 580c0 5.52-4.48 10-10 10-5.53 0-10-4.48-10-10s4.47-10 10-10c5.52 0 10 4.48 10 10" stroke="#333" fill="#fff"/><path d="M100 923.5c0-2.76 2.24-5 5-5h270c2.76 0 5 2.24 5 5v54c0 2.76-2.24 5-5 5H105c-2.76 0-5-2.24-5-5z" fill="#fff"/><path d="M100 878.5h280v40H100z" fill="#c1e4f7"/><path d="M100 883.5c0-2.76 2.24-5 5-5h270c2.76 0 5 2.24 5 5v94c0 2.76-2.24 5-5 5H105c-2.76 0-5-2.24-5-5zM100 918.5h280M261.03 918.5v64" stroke="#333" fill="none"/><g><use xlink:href="#P" transform="matrix(1,0,0,1,110,878.4990424361728) translate(46.125 23.6)"/></g><g><use xlink:href="#Q" transform="matrix(1,0,0,1,105,920.9990424361728) translate(0 17.1)"/></g><g><use xlink:href="#R" transform="matrix(1,0,0,1,266.03273809523796,920.9990424361728) translate(0 17.1)"/><use xlink:href="#S" transform="matrix(1,0,0,1,266.03273809523796,920.9990424361728) translate(23.95 17.1)"/></g><g><use xlink:href="#T" transform="matrix(1,0,0,1,105,952.9990424361728) translate(0 17.1)"/></g><g><use xlink:href="#O" transform="matrix(1,0,0,1,266.03273809523796,952.9990424361728) translate(0 17.1)"/></g><path d="M240 858v-8c0-6.63-5.37-12-12-12H51.5c-6.63 0-12-5.37-12-12V332c0-6.63 5.37-12 12-12h8.6" stroke="#333" fill="none"/><path d="M250 868h-20M240 878v-20M250 858h-20" stroke="#333" fill="#fff"/><path d="M79.28 330l-20-10 20-10" stroke="#333" fill="#fff" fill-opacity="0"/><path d="M79.28 320h-20" stroke="#333" fill="#fff"/><path d="M960 954.4V978c0 6.63-5.37 12-12 12H433.5c-6.63 0-12-5.37-12-12v-31c0-6.63-5.37-12-12-12h-9" stroke="#333" fill="none"/><path d="M970 935.22l-10 20-10-20" stroke="#333" fill="#fff" fill-opacity="0"/><path d="M960 935.22v20M390.5 945v-20M380.5 935h20M400.5 945v-20" stroke="#333" fill="#fff"/><defs><path fill="#a9afb8" d="M88-194c31-1 46 15 58 34l-1-101h50l1 261h-48c-2-10 0-23-3-31C134-8 116 4 84 4 32 4 16-41 15-95c0-56 19-97 73-99zm17 164c33 0 40-30 41-66 1-37-9-64-41-64s-38 30-39 65c0 43 13 65 39 65" id="U"/><path fill="#a9afb8" d="M12 0v-35l95-120H19v-35h142v35L67-36h103V0H12" id="V"/><path fill="#a9afb8" d="M128-127c34 4 56 21 59 58 7 91-148 94-172 28-4-9-6-17-7-26l51-5c1 24 16 35 40 36 23 0 39-12 38-36-1-31-31-36-65-34v-40c32 2 59-3 59-33 0-20-13-33-34-33s-33 13-35 32l-50-3c6-44 37-68 86-68 50 0 83 20 83 66 0 35-22 52-53 58" id="W"/><g id="a"><use transform="matrix(0.0728395061728395,0,0,0.0728395061728395,0,0)" xlink:href="#U"/><use transform="matrix(0.0728395061728395,0,0,0.0728395061728395,15.95185185185185,0)" xlink:href="#V"/><use transform="matrix(0.0728395061728395,0,0,0.0728395061728395,29.062962962962963,0)" xlink:href="#W"/></g><path fill="#a9afb8" d="M185-189c-5-48-123-54-124 2 14 75 158 14 163 119 3 78-121 87-175 55-17-10-28-26-33-46l33-7c5 56 141 63 141-1 0-78-155-14-162-118-5-82 145-84 179-34 5 7 8 16 11 25" id="X"/><path fill="#a9afb8" d="M240 0l2-218c-23 76-54 145-80 218h-23L58-218 59 0H30v-248h44l77 211c21-75 51-140 76-211h43V0h-30" id="Y"/><g id="b"><use transform="matrix(0.04248971193415638,0,0,0.04248971193415638,0,0)" xlink:href="#X"/><use transform="matrix(0.04248971193415638,0,0,0.04248971193415638,10.19753086419753,0)" xlink:href="#Y"/></g><path fill="#a9afb8" d="M32 76v-337h29V76H32" id="Z"/><use transform="matrix(0.04248971193415638,0,0,0.04248971193415638,0,0)" xlink:href="#Z" id="c"/><path fill="#a9afb8" d="M30-248c118-7 216 8 213 122C240-48 200 0 122 0H30v-248zM63-27c89 8 146-16 146-99s-60-101-146-95v194" id="aa"/><path fill="#a9afb8" d="M100-194c63 0 86 42 84 106H49c0 40 14 67 53 68 26 1 43-12 49-29l28 8c-11 28-37 45-77 45C44 4 14-33 15-96c1-61 26-98 85-98zm52 81c6-60-76-77-97-28-3 7-6 17-6 28h103" id="ab"/><path fill="#a9afb8" d="M96-169c-40 0-48 33-48 73s9 75 48 75c24 0 41-14 43-38l32 2c-6 37-31 61-74 61-59 0-76-41-82-99-10-93 101-131 147-64 4 7 5 14 7 22l-32 3c-4-21-16-35-41-35" id="ac"/><path fill="#a9afb8" d="M210-169c-67 3-38 105-44 169h-31v-121c0-29-5-50-35-48C34-165 62-65 56 0H25l-1-190h30c1 10-1 24 2 32 10-44 99-50 107 0 11-21 27-35 58-36 85-2 47 119 55 194h-31v-121c0-29-5-49-35-48" id="ad"/><path fill="#a9afb8" d="M115-194c53 0 69 39 70 98 0 66-23 100-70 100C84 3 66-7 56-30L54 0H23l1-261h32v101c10-23 28-34 59-34zm-8 174c40 0 45-34 45-75 0-40-5-75-45-74-42 0-51 32-51 76 0 43 10 73 51 73" id="ae"/><path fill="#a9afb8" d="M114-163C36-179 61-72 57 0H25l-1-190h30c1 12-1 29 2 39 6-27 23-49 58-41v29" id="af"/><g id="d"><use transform="matrix(0.04248971193415638,0,0,0.04248971193415638,0,0)" xlink:href="#aa"/><use transform="matrix(0.04248971193415638,0,0,0.04248971193415638,11.004835390946502,0)" xlink:href="#ab"/><use transform="matrix(0.04248971193415638,0,0,0.04248971193415638,19.502777777777776,0)" xlink:href="#ac"/><use transform="matrix(0.04248971193415638,0,0,0.04248971193415638,27.150925925925925,0)" xlink:href="#ab"/><use transform="matrix(0.04248971193415638,0,0,0.04248971193415638,35.6488683127572,0)" xlink:href="#ad"/><use transform="matrix(0.04248971193415638,0,0,0.04248971193415638,48.35329218106995,0)" xlink:href="#ae"/><use transform="matrix(0.04248971193415638,0,0,0.04248971193415638,56.851234567901244,0)" xlink:href="#ab"/><use transform="matrix(0.04248971193415638,0,0,0.04248971193415638,65.34917695473251,0)" xlink:href="#af"/></g><path fill="#a9afb8" d="M27 0v-27h64v-190l-56 39v-29l58-41h29v221h61V0H27" id="ag"/><path fill="#a9afb8" d="M155-56V0h-30v-56H8v-25l114-167h33v167h35v25h-35zm-30-156c-27 46-58 90-88 131h88v-131" id="ah"/><path fill="#a9afb8" d="M68-38c1 34 0 65-14 84H32c9-13 17-26 17-46H33v-38h35" id="ai"/><g id="e"><use transform="matrix(0.04248971193415638,0,0,0.04248971193415638,0,0)" xlink:href="#ag"/><use transform="matrix(0.04248971193415638,0,0,0.04248971193415638,8.497942386831275,0)" xlink:href="#ah"/><use transform="matrix(0.04248971193415638,0,0,0.04248971193415638,16.99588477366255,0)" xlink:href="#ai"/></g><path fill="#a9afb8" d="M101-251c82-7 93 87 43 132L82-64C71-53 59-42 53-27h129V0H18c2-99 128-94 128-182 0-28-16-43-45-43s-46 15-49 41l-32-3c6-41 34-60 81-64" id="aj"/><path fill="#a9afb8" d="M101-251c68 0 85 55 85 127S166 4 100 4C33 4 14-52 14-124c0-73 17-127 87-127zm-1 229c47 0 54-49 54-102s-4-102-53-102c-51 0-55 48-55 102 0 53 5 102 54 102" id="ak"/><g id="f"><use transform="matrix(0.04248971193415638,0,0,0.04248971193415638,0,0)" xlink:href="#aj"/><use transform="matrix(0.04248971193415638,0,0,0.04248971193415638,8.497942386831275,0)" xlink:href="#ak"/><use transform="matrix(0.04248971193415638,0,0,0.04248971193415638,16.99588477366255,0)" xlink:href="#aj"/><use transform="matrix(0.04248971193415638,0,0,0.04248971193415638,25.493827160493822,0)" xlink:href="#ag"/></g><path fill="#333" d="M121-226c-27-7-43 5-38 36h38v33H83V0H34v-157H6v-33h28c-9-59 32-81 87-68v32" id="al"/><path fill="#333" d="M133-34C117-15 103 5 69 4 32 3 11-16 11-54c-1-60 55-63 116-61 1-26-3-47-28-47-18 1-26 9-28 27l-52-2c7-38 36-58 82-57s74 22 75 68l1 82c-1 14 12 18 25 15v27c-30 8-71 5-69-32zm-48 3c29 0 43-24 42-57-32 0-66-3-65 30 0 17 8 27 23 27" id="am"/><path fill="#333" d="M190-63c-7 42-38 67-86 67-59 0-84-38-90-98-12-110 154-137 174-36l-49 2c-2-19-15-32-35-32-30 0-35 28-38 64-6 74 65 87 74 30" id="an"/><path fill="#333" d="M115-3C79 11 28 4 28-45v-112H4v-33h27l15-45h31v45h36v33H77v99c-1 23 16 31 38 25v30" id="ao"/><path fill="#333" d="M-4 44V30h207v14H-4" id="ap"/><path fill="#333" d="M110-194c64 0 96 36 96 99 0 64-35 99-97 99-61 0-95-36-95-99 0-62 34-99 96-99zm-1 164c35 0 45-28 45-65 0-40-10-65-43-65-34 0-45 26-45 65 0 36 10 65 43 65" id="aq"/><path fill="#333" d="M135-150c-39-12-60 13-60 57V0H25l-1-190h47c2 13-1 29 3 40 6-28 27-53 61-41v41" id="ar"/><path fill="#333" d="M88-194c31-1 46 15 58 34l-1-101h50l1 261h-48c-2-10 0-23-3-31C134-8 116 4 84 4 32 4 16-41 15-95c0-56 19-97 73-99zm17 164c33 0 40-30 41-66 1-37-9-64-41-64s-38 30-39 65c0 43 13 65 39 65" id="as"/><path fill="#333" d="M185-48c-13 30-37 53-82 52C43 2 14-33 14-96s30-98 90-98c62 0 83 45 84 108H66c0 31 8 55 39 56 18 0 30-7 34-22zm-45-69c5-46-57-63-70-21-2 6-4 13-4 21h74" id="at"/><path fill="#333" d="M137-138c1-29-70-34-71-4 15 46 118 7 119 86 1 83-164 76-172 9l43-7c4 19 20 25 44 25 33 8 57-30 24-41C81-84 22-81 20-136c-2-80 154-74 161-7" id="au"/><g id="g"><use transform="matrix(0.05,0,0,0.05,0,0)" xlink:href="#al"/><use transform="matrix(0.05,0,0,0.05,5.95,0)" xlink:href="#am"/><use transform="matrix(0.05,0,0,0.05,15.949999999999998,0)" xlink:href="#an"/><use transform="matrix(0.05,0,0,0.05,25.950000000000003,0)" xlink:href="#ao"/><use transform="matrix(0.05,0,0,0.05,31.899999999999995,0)" xlink:href="#ap"/><use transform="matrix(0.05,0,0,0.05,41.9,0)" xlink:href="#aq"/><use transform="matrix(0.05,0,0,0.05,52.85,0)" xlink:href="#ar"/><use transform="matrix(0.05,0,0,0.05,59.85,0)" xlink:href="#as"/><use transform="matrix(0.05,0,0,0.05,70.8,0)" xlink:href="#at"/><use transform="matrix(0.05,0,0,0.05,80.8,0)" xlink:href="#ar"/><use transform="matrix(0.05,0,0,0.05,87.8,0)" xlink:href="#au"/></g><path fill="#333" d="M115-194c55 1 70 41 70 98S169 2 115 4C84 4 66-9 55-30l1 105H24l-1-265h31l2 30c10-21 28-34 59-34zm-8 174c40 0 45-34 45-75s-6-73-45-74c-42 0-51 32-51 76 0 43 10 73 51 73" id="av"/><path fill="#333" d="M114-163C36-179 61-72 57 0H25l-1-190h30c1 12-1 29 2 39 6-27 23-49 58-41v29" id="aw"/><path fill="#333" d="M100-194c62-1 85 37 85 99 1 63-27 99-86 99S16-35 15-95c0-66 28-99 85-99zM99-20c44 1 53-31 53-75 0-43-8-75-51-75s-53 32-53 75 10 74 51 75" id="ax"/><path fill="#333" d="M85-194c31 0 48 13 60 33l-1-100h32l1 261h-30c-2-10 0-23-3-31C134-8 116 4 85 4 32 4 16-35 15-94c0-66 23-100 70-100zm9 24c-40 0-46 34-46 75 0 40 6 74 45 74 42 0 51-32 51-76 0-42-9-74-50-73" id="ay"/><path fill="#333" d="M84 4C-5 8 30-112 23-190h32v120c0 31 7 50 39 49 72-2 45-101 50-169h31l1 190h-30c-1-10 1-25-2-33-11 22-28 36-60 37" id="az"/><path fill="#333" d="M96-169c-40 0-48 33-48 73s9 75 48 75c24 0 41-14 43-38l32 2c-6 37-31 61-74 61-59 0-76-41-82-99-10-93 101-131 147-64 4 7 5 14 7 22l-32 3c-4-21-16-35-41-35" id="aA"/><path fill="#333" d="M59-47c-2 24 18 29 38 22v24C64 9 27 4 27-40v-127H5v-23h24l9-43h21v43h35v23H59v120" id="aB"/><path fill="#333" d="M-5 72V49h209v23H-5" id="aC"/><path fill="#333" d="M24-231v-30h32v30H24zM24 0v-190h32V0H24" id="aD"/><g id="h"><use transform="matrix(0.05,0,0,0.05,0,0)" xlink:href="#av"/><use transform="matrix(0.05,0,0,0.05,10,0)" xlink:href="#aw"/><use transform="matrix(0.05,0,0,0.05,15.949999999999998,0)" xlink:href="#ax"/><use transform="matrix(0.05,0,0,0.05,25.950000000000003,0)" xlink:href="#ay"/><use transform="matrix(0.05,0,0,0.05,35.95,0)" xlink:href="#az"/><use transform="matrix(0.05,0,0,0.05,45.95,0)" xlink:href="#aA"/><use transform="matrix(0.05,0,0,0.05,54.95,0)" xlink:href="#aB"/><use transform="matrix(0.05,0,0,0.05,59.95,0)" xlink:href="#aC"/><use transform="matrix(0.05,0,0,0.05,69.95,0)" xlink:href="#aD"/><use transform="matrix(0.05,0,0,0.05,73.9,0)" xlink:href="#ay"/></g><path fill="#333" d="M117-194c89-4 53 116 60 194h-32v-121c0-31-8-49-39-48C34-167 62-67 57 0H25l-1-190h30c1 10-1 24 2 32 11-22 29-35 61-36" id="aE"/><g id="i"><use transform="matrix(0.05,0,0,0.05,0,0)" xlink:href="#aD"/><use transform="matrix(0.05,0,0,0.05,3.95,0)" xlink:href="#aE"/><use transform="matrix(0.05,0,0,0.05,13.949999999999998,0)" xlink:href="#aB"/></g><path fill="#333" d="M30-248c87 1 191-15 191 75 0 78-77 80-158 76V0H30v-248zm33 125c57 0 124 11 124-50 0-59-68-47-124-48v98" id="aF"/><path fill="#333" d="M194 0L95-120 63-95V0H30v-248h33v124l119-124h40L117-140 236 0h-42" id="aG"/><g id="j"><use transform="matrix(0.05,0,0,0.05,0,0)" xlink:href="#aF"/><use transform="matrix(0.05,0,0,0.05,12,0)" xlink:href="#aG"/></g><path fill="#333" d="M63-220v92h138v28H63V0H30v-248h175v28H63" id="aH"/><g id="k"><use transform="matrix(0.05,0,0,0.05,0,0)" xlink:href="#aH"/><use transform="matrix(0.05,0,0,0.05,10.950000000000001,0)" xlink:href="#aG"/></g><path fill="#333" d="M24 0v-261h32V0H24" id="aI"/><g id="l"><use transform="matrix(0.05,0,0,0.05,0,0)" xlink:href="#aA"/><use transform="matrix(0.05,0,0,0.05,9,0)" xlink:href="#aI"/><use transform="matrix(0.05,0,0,0.05,12.949999999999998,0)" xlink:href="#aD"/><use transform="matrix(0.05,0,0,0.05,16.9,0)" xlink:href="#aE"/><use transform="matrix(0.05,0,0,0.05,26.899999999999995,0)" xlink:href="#aB"/><use transform="matrix(0.05,0,0,0.05,31.899999999999995,0)" xlink:href="#aC"/><use transform="matrix(0.05,0,0,0.05,41.9,0)" xlink:href="#aD"/><use transform="matrix(0.05,0,0,0.05,45.85,0)" xlink:href="#ay"/></g><path fill="#333" d="M135-143c-3-34-86-38-87 0 15 53 115 12 119 90S17 21 10-45l28-5c4 36 97 45 98 0-10-56-113-15-118-90-4-57 82-63 122-42 12 7 21 19 24 35" id="aJ"/><path fill="#333" d="M100-194c63 0 86 42 84 106H49c0 40 14 67 53 68 26 1 43-12 49-29l28 8c-11 28-37 45-77 45C44 4 14-33 15-96c1-61 26-98 85-98zm52 81c6-60-76-77-97-28-3 7-6 17-6 28h103" id="aK"/><g id="m"><use transform="matrix(0.05,0,0,0.05,0,0)" xlink:href="#aJ"/><use transform="matrix(0.05,0,0,0.05,9,0)" xlink:href="#aB"/><use transform="matrix(0.05,0,0,0.05,14,0)" xlink:href="#ax"/><use transform="matrix(0.05,0,0,0.05,24,0)" xlink:href="#aw"/><use transform="matrix(0.05,0,0,0.05,29.950000000000003,0)" xlink:href="#aK"/><use transform="matrix(0.05,0,0,0.05,39.95,0)" xlink:href="#aC"/><use transform="matrix(0.05,0,0,0.05,49.95,0)" xlink:href="#aD"/><use transform="matrix(0.05,0,0,0.05,53.900000000000006,0)" xlink:href="#ay"/></g><path fill="#333" d="M141-36C126-15 110 5 73 4 37 3 15-17 15-53c-1-64 63-63 125-63 3-35-9-54-41-54-24 1-41 7-42 31l-33-3c5-37 33-52 76-52 45 0 72 20 72 64v82c-1 20 7 32 28 27v20c-31 9-61-2-59-35zM48-53c0 20 12 33 32 33 41-3 63-29 60-74-43 2-92-5-92 41" id="aL"/><g id="n"><use transform="matrix(0.05,0,0,0.05,0,0)" xlink:href="#ax"/><use transform="matrix(0.05,0,0,0.05,10,0)" xlink:href="#aw"/><use transform="matrix(0.05,0,0,0.05,15.949999999999998,0)" xlink:href="#ay"/><use transform="matrix(0.05,0,0,0.05,25.950000000000003,0)" xlink:href="#aK"/><use transform="matrix(0.05,0,0,0.05,35.95,0)" xlink:href="#aw"/><use transform="matrix(0.05,0,0,0.05,41.900000000000006,0)" xlink:href="#aC"/><use transform="matrix(0.05,0,0,0.05,51.900000000000006,0)" xlink:href="#ay"/><use transform="matrix(0.05,0,0,0.05,61.900000000000006,0)" xlink:href="#aL"/><use transform="matrix(0.05,0,0,0.05,71.9,0)" xlink:href="#aB"/><use transform="matrix(0.05,0,0,0.05,76.9,0)" xlink:href="#aK"/></g><g id="o"><use transform="matrix(0.05,0,0,0.05,0,0)" xlink:href="#ay"/><use transform="matrix(0.05,0,0,0.05,10,0)" xlink:href="#aL"/><use transform="matrix(0.05,0,0,0.05,20,0)" xlink:href="#aB"/><use transform="matrix(0.05,0,0,0.05,25,0)" xlink:href="#aK"/></g><path d="M145-31C134-9 116 4 85 4 32 4 16-35 15-94c0-59 17-99 70-100 32-1 48 14 60 33 0-11-1-24 2-32h30l-1 268h-32zM93-21c41 0 51-33 51-76s-8-73-50-73c-40 0-46 35-46 75s5 74 45 74" id="aM"/><path d="M84 4C-5 8 30-112 23-190h32v120c0 31 7 50 39 49 72-2 45-101 50-169h31l1 190h-30c-1-10 1-25-2-33-11 22-28 36-60 37" id="aN"/><path d="M141-36C126-15 110 5 73 4 37 3 15-17 15-53c-1-64 63-63 125-63 3-35-9-54-41-54-24 1-41 7-42 31l-33-3c5-37 33-52 76-52 45 0 72 20 72 64v82c-1 20 7 32 28 27v20c-31 9-61-2-59-35zM48-53c0 20 12 33 32 33 41-3 63-29 60-74-43 2-92-5-92 41" id="aO"/><path d="M117-194c89-4 53 116 60 194h-32v-121c0-31-8-49-39-48C34-167 62-67 57 0H25l-1-190h30c1 10-1 24 2 32 11-22 29-35 61-36" id="aP"/><path d="M59-47c-2 24 18 29 38 22v24C64 9 27 4 27-40v-127H5v-23h24l9-43h21v43h35v23H59v120" id="aQ"/><path d="M24-231v-30h32v30H24zM24 0v-190h32V0H24" id="aR"/><path d="M179-190L93 31C79 59 56 82 12 73V49c39 6 53-20 64-50L1-190h34L92-34l54-156h33" id="aS"/><g id="p"><use transform="matrix(0.05,0,0,0.05,0,0)" xlink:href="#aM"/><use transform="matrix(0.05,0,0,0.05,10,0)" xlink:href="#aN"/><use transform="matrix(0.05,0,0,0.05,20,0)" xlink:href="#aO"/><use transform="matrix(0.05,0,0,0.05,30,0)" xlink:href="#aP"/><use transform="matrix(0.05,0,0,0.05,40,0)" xlink:href="#aQ"/><use transform="matrix(0.05,0,0,0.05,45,0)" xlink:href="#aR"/><use transform="matrix(0.05,0,0,0.05,48.95,0)" xlink:href="#aQ"/><use transform="matrix(0.05,0,0,0.05,53.95,0)" xlink:href="#aS"/></g><g id="q"><use transform="matrix(0.05,0,0,0.05,0,0)" xlink:href="#aR"/><use transform="matrix(0.05,0,0,0.05,3.95,0)" xlink:href="#aP"/><use transform="matrix(0.05,0,0,0.05,13.949999999999998,0)" xlink:href="#aQ"/></g><path fill="#333" d="M85 4C-2 5 27-109 22-190h50c7 57-23 150 33 157 60-5 35-97 40-157h50l1 190h-47c-2-12 1-28-3-38-12 25-28 42-61 42" id="aT"/><path fill="#333" d="M147 0L96-86 75-71V0H25v-261h50v150l67-79h53l-66 74L201 0h-54" id="aU"/><g id="r"><use transform="matrix(0.05,0,0,0.05,0,0)" xlink:href="#al"/><use transform="matrix(0.05,0,0,0.05,5.95,0)" xlink:href="#am"/><use transform="matrix(0.05,0,0,0.05,15.949999999999998,0)" xlink:href="#an"/><use transform="matrix(0.05,0,0,0.05,25.950000000000003,0)" xlink:href="#ao"/><use transform="matrix(0.05,0,0,0.05,31.899999999999995,0)" xlink:href="#ap"/><use transform="matrix(0.05,0,0,0.05,41.9,0)" xlink:href="#aq"/><use transform="matrix(0.05,0,0,0.05,52.85,0)" xlink:href="#aT"/><use transform="matrix(0.05,0,0,0.05,63.800000000000004,0)" xlink:href="#ao"/><use transform="matrix(0.05,0,0,0.05,69.75,0)" xlink:href="#ap"/><use transform="matrix(0.05,0,0,0.05,79.75,0)" xlink:href="#aq"/><use transform="matrix(0.05,0,0,0.05,90.7,0)" xlink:href="#al"/><use transform="matrix(0.05,0,0,0.05,96.65,0)" xlink:href="#ap"/><use transform="matrix(0.05,0,0,0.05,106.65,0)" xlink:href="#au"/><use transform="matrix(0.05,0,0,0.05,116.65,0)" xlink:href="#ao"/><use transform="matrix(0.05,0,0,0.05,122.60000000000001,0)" xlink:href="#aq"/><use transform="matrix(0.05,0,0,0.05,133.55,0)" xlink:href="#an"/><use transform="matrix(0.05,0,0,0.05,143.55,0)" xlink:href="#aU"/></g><g id="s"><use transform="matrix(0.05,0,0,0.05,0,0)" xlink:href="#aL"/><use transform="matrix(0.05,0,0,0.05,10,0)" xlink:href="#aA"/><use transform="matrix(0.05,0,0,0.05,19,0)" xlink:href="#aB"/><use transform="matrix(0.05,0,0,0.05,24,0)" xlink:href="#aD"/><use transform="matrix(0.05,0,0,0.05,27.950000000000003,0)" xlink:href="#ax"/><use transform="matrix(0.05,0,0,0.05,37.95,0)" xlink:href="#aE"/><use transform="matrix(0.05,0,0,0.05,47.95,0)" xlink:href="#aC"/><use transform="matrix(0.05,0,0,0.05,57.95,0)" xlink:href="#ay"/><use transform="matrix(0.05,0,0,0.05,67.95,0)" xlink:href="#aL"/><use transform="matrix(0.05,0,0,0.05,77.95,0)" xlink:href="#aB"/><use transform="matrix(0.05,0,0,0.05,82.95,0)" xlink:href="#aK"/></g><path fill="#333" d="M25-224v-37h50v37H25zM25 0v-190h50V0H25" id="aV"/><path fill="#333" d="M220-157c-53 9-28 100-34 157h-49v-107c1-27-5-49-29-50C55-147 81-57 75 0H25l-1-190h47c2 12-1 28 3 38 10-53 101-56 108 0 13-22 24-43 59-42 82 1 51 116 57 194h-49v-107c-1-25-5-48-29-50" id="aW"/><g id="t"><use transform="matrix(0.05,0,0,0.05,0,0)" xlink:href="#as"/><use transform="matrix(0.05,0,0,0.05,10.950000000000001,0)" xlink:href="#aV"/><use transform="matrix(0.05,0,0,0.05,15.950000000000001,0)" xlink:href="#aW"/><use transform="matrix(0.05,0,0,0.05,31.950000000000003,0)" xlink:href="#ap"/><use transform="matrix(0.05,0,0,0.05,41.95,0)" xlink:href="#au"/><use transform="matrix(0.05,0,0,0.05,51.95,0)" xlink:href="#ao"/><use transform="matrix(0.05,0,0,0.05,57.900000000000006,0)" xlink:href="#aq"/><use transform="matrix(0.05,0,0,0.05,68.85000000000001,0)" xlink:href="#ar"/><use transform="matrix(0.05,0,0,0.05,75.85000000000001,0)" xlink:href="#at"/><use transform="matrix(0.05,0,0,0.05,85.85000000000001,0)" xlink:href="#au"/></g><g id="u"><use transform="matrix(0.05,0,0,0.05,0,0)" xlink:href="#aF"/><use transform="matrix(0.05,0,0,0.05,12,0)" xlink:href="#aG"/></g><path d="M114-163C36-179 61-72 57 0H25l-1-190h30c1 12-1 29 2 39 6-27 23-49 58-41v29" id="aX"/><path d="M100-194c63 0 86 42 84 106H49c0 40 14 67 53 68 26 1 43-12 49-29l28 8c-11 28-37 45-77 45C44 4 14-33 15-96c1-61 26-98 85-98zm52 81c6-60-76-77-97-28-3 7-6 17-6 28h103" id="aY"/><path d="M-5 72V49h209v23H-5" id="aZ"/><path d="M85-194c31 0 48 13 60 33l-1-100h32l1 261h-30c-2-10 0-23-3-31C134-8 116 4 85 4 32 4 16-35 15-94c0-66 23-100 70-100zm9 24c-40 0-46 34-46 75 0 40 6 74 45 74 42 0 51-32 51-76 0-42-9-74-50-73" id="ba"/><g id="v"><use transform="matrix(0.05,0,0,0.05,0,0)" xlink:href="#aO"/><use transform="matrix(0.05,0,0,0.05,10,0)" xlink:href="#aX"/><use transform="matrix(0.05,0,0,0.05,15.949999999999998,0)" xlink:href="#aY"/><use transform="matrix(0.05,0,0,0.05,25.950000000000003,0)" xlink:href="#aO"/><use transform="matrix(0.05,0,0,0.05,35.95,0)" xlink:href="#aZ"/><use transform="matrix(0.05,0,0,0.05,45.95,0)" xlink:href="#aR"/><use transform="matrix(0.05,0,0,0.05,49.900000000000006,0)" xlink:href="#ba"/></g><g id="w"><use transform="matrix(0.05,0,0,0.05,0,0)" xlink:href="#aR"/><use transform="matrix(0.05,0,0,0.05,3.95,0)" xlink:href="#aP"/><use transform="matrix(0.05,0,0,0.05,13.949999999999998,0)" xlink:href="#aQ"/></g><path d="M135-143c-3-34-86-38-87 0 15 53 115 12 119 90S17 21 10-45l28-5c4 36 97 45 98 0-10-56-113-15-118-90-4-57 82-63 122-42 12 7 21 19 24 35" id="bb"/><path d="M100-194c62-1 85 37 85 99 1 63-27 99-86 99S16-35 15-95c0-66 28-99 85-99zM99-20c44 1 53-31 53-75 0-43-8-75-51-75s-53 32-53 75 10 74 51 75" id="bc"/><path d="M115-194c55 1 70 41 70 98S169 2 115 4C84 4 66-9 55-30l1 105H24l-1-265h31l2 30c10-21 28-34 59-34zm-8 174c40 0 45-34 45-75s-6-73-45-74c-42 0-51 32-51 76 0 43 10 73 51 73" id="bd"/><g id="x"><use transform="matrix(0.05,0,0,0.05,0,0)" xlink:href="#bb"/><use transform="matrix(0.05,0,0,0.05,9,0)" xlink:href="#aQ"/><use transform="matrix(0.05,0,0,0.05,14,0)" xlink:href="#bc"/><use transform="matrix(0.05,0,0,0.05,24,0)" xlink:href="#aX"/><use transform="matrix(0.05,0,0,0.05,29.950000000000003,0)" xlink:href="#aY"/><use transform="matrix(0.05,0,0,0.05,39.95,0)" xlink:href="#aZ"/><use transform="matrix(0.05,0,0,0.05,49.95,0)" xlink:href="#aQ"/><use transform="matrix(0.05,0,0,0.05,54.95,0)" xlink:href="#aS"/><use transform="matrix(0.05,0,0,0.05,63.95,0)" xlink:href="#bd"/><use transform="matrix(0.05,0,0,0.05,73.95,0)" xlink:href="#aY"/></g><path d="M177-190C167-65 218 103 67 71c-23-6-38-20-44-43l32-5c15 47 100 32 89-28v-30C133-14 115 1 83 1 29 1 15-40 15-95c0-56 16-97 71-98 29-1 48 16 59 35 1-10 0-23 2-32h30zM94-22c36 0 50-32 50-73 0-42-14-75-50-75-39 0-46 34-46 75s6 73 46 73" id="be"/><g id="y"><use transform="matrix(0.05,0,0,0.05,0,0)" xlink:href="#bb"/><use transform="matrix(0.05,0,0,0.05,9,0)" xlink:href="#aQ"/><use transform="matrix(0.05,0,0,0.05,14,0)" xlink:href="#aX"/><use transform="matrix(0.05,0,0,0.05,19.95,0)" xlink:href="#aR"/><use transform="matrix(0.05,0,0,0.05,23.9,0)" xlink:href="#aP"/><use transform="matrix(0.05,0,0,0.05,33.9,0)" xlink:href="#be"/></g><g id="z"><use transform="matrix(0.05,0,0,0.05,0,0)" xlink:href="#as"/><use transform="matrix(0.05,0,0,0.05,10.950000000000001,0)" xlink:href="#aV"/><use transform="matrix(0.05,0,0,0.05,15.950000000000001,0)" xlink:href="#aW"/><use transform="matrix(0.05,0,0,0.05,31.950000000000003,0)" xlink:href="#ap"/><use transform="matrix(0.05,0,0,0.05,41.95,0)" xlink:href="#as"/><use transform="matrix(0.05,0,0,0.05,52.900000000000006,0)" xlink:href="#am"/><use transform="matrix(0.05,0,0,0.05,62.900000000000006,0)" xlink:href="#ao"/><use transform="matrix(0.05,0,0,0.05,68.85000000000001,0)" xlink:href="#at"/><use transform="matrix(0.05,0,0,0.05,78.85000000000001,0)" xlink:href="#au"/></g><path d="M96-169c-40 0-48 33-48 73s9 75 48 75c24 0 41-14 43-38l32 2c-6 37-31 61-74 61-59 0-76-41-82-99-10-93 101-131 147-64 4 7 5 14 7 22l-32 3c-4-21-16-35-41-35" id="bf"/><g id="A"><use transform="matrix(0.05,0,0,0.05,0,0)" xlink:href="#aO"/><use transform="matrix(0.05,0,0,0.05,10,0)" xlink:href="#bf"/><use transform="matrix(0.05,0,0,0.05,19,0)" xlink:href="#aQ"/><use transform="matrix(0.05,0,0,0.05,24,0)" xlink:href="#aR"/><use transform="matrix(0.05,0,0,0.05,27.950000000000003,0)" xlink:href="#bc"/><use transform="matrix(0.05,0,0,0.05,37.95,0)" xlink:href="#aP"/><use transform="matrix(0.05,0,0,0.05,47.95,0)" xlink:href="#aZ"/><use transform="matrix(0.05,0,0,0.05,57.95,0)" xlink:href="#ba"/><use transform="matrix(0.05,0,0,0.05,67.95,0)" xlink:href="#aO"/><use transform="matrix(0.05,0,0,0.05,77.95,0)" xlink:href="#aQ"/><use transform="matrix(0.05,0,0,0.05,82.95,0)" xlink:href="#aY"/></g><g id="B"><use transform="matrix(0.05,0,0,0.05,0,0)" xlink:href="#ba"/><use transform="matrix(0.05,0,0,0.05,10,0)" xlink:href="#aO"/><use transform="matrix(0.05,0,0,0.05,20,0)" xlink:href="#aQ"/><use transform="matrix(0.05,0,0,0.05,25,0)" xlink:href="#aY"/></g><path d="M30-248c87 1 191-15 191 75 0 78-77 80-158 76V0H30v-248zm33 125c57 0 124 11 124-50 0-59-68-47-124-48v98" id="bg"/><path d="M194 0L95-120 63-95V0H30v-248h33v124l119-124h40L117-140 236 0h-42" id="bh"/><g id="C"><use transform="matrix(0.05,0,0,0.05,0,0)" xlink:href="#bg"/><use transform="matrix(0.05,0,0,0.05,12,0)" xlink:href="#bh"/></g><g id="D"><use transform="matrix(0.05,0,0,0.05,0,0)" xlink:href="#aO"/><use transform="matrix(0.05,0,0,0.05,10,0)" xlink:href="#bf"/><use transform="matrix(0.05,0,0,0.05,19,0)" xlink:href="#aQ"/><use transform="matrix(0.05,0,0,0.05,24,0)" xlink:href="#aR"/><use transform="matrix(0.05,0,0,0.05,27.950000000000003,0)" xlink:href="#bc"/><use transform="matrix(0.05,0,0,0.05,37.95,0)" xlink:href="#aP"/><use transform="matrix(0.05,0,0,0.05,47.95,0)" xlink:href="#aZ"/><use transform="matrix(0.05,0,0,0.05,57.95,0)" xlink:href="#aS"/><use transform="matrix(0.05,0,0,0.05,66.95,0)" xlink:href="#aY"/><use transform="matrix(0.05,0,0,0.05,76.95,0)" xlink:href="#aO"/><use transform="matrix(0.05,0,0,0.05,86.95,0)" xlink:href="#aX"/></g><path d="M210-169c-67 3-38 105-44 169h-31v-121c0-29-5-50-35-48C34-165 62-65 56 0H25l-1-190h30c1 10-1 24 2 32 10-44 99-50 107 0 11-21 27-35 58-36 85-2 47 119 55 194h-31v-121c0-29-5-49-35-48" id="bi"/><path d="M106-169C34-169 62-67 57 0H25v-261h32l-1 103c12-21 28-36 61-36 89 0 53 116 60 194h-32v-121c2-32-8-49-39-48" id="bj"/><g id="E"><use transform="matrix(0.05,0,0,0.05,0,0)" xlink:href="#aO"/><use transform="matrix(0.05,0,0,0.05,10,0)" xlink:href="#bf"/><use transform="matrix(0.05,0,0,0.05,19,0)" xlink:href="#aQ"/><use transform="matrix(0.05,0,0,0.05,24,0)" xlink:href="#aR"/><use transform="matrix(0.05,0,0,0.05,27.950000000000003,0)" xlink:href="#bc"/><use transform="matrix(0.05,0,0,0.05,37.95,0)" xlink:href="#aP"/><use transform="matrix(0.05,0,0,0.05,47.95,0)" xlink:href="#aZ"/><use transform="matrix(0.05,0,0,0.05,57.95,0)" xlink:href="#bi"/><use transform="matrix(0.05,0,0,0.05,72.9,0)" xlink:href="#bc"/><use transform="matrix(0.05,0,0,0.05,82.9,0)" xlink:href="#aP"/><use transform="matrix(0.05,0,0,0.05,92.9,0)" xlink:href="#aQ"/><use transform="matrix(0.05,0,0,0.05,97.9,0)" xlink:href="#bj"/></g><path d="M206 0h-36l-40-164L89 0H53L-1-190h32L70-26l43-164h34l41 164 42-164h31" id="bk"/><path d="M143 0L79-87 56-68V0H24v-261h32v163l83-92h37l-77 82L181 0h-38" id="bl"/><g id="F"><use transform="matrix(0.05,0,0,0.05,0,0)" xlink:href="#aO"/><use transform="matrix(0.05,0,0,0.05,10,0)" xlink:href="#bf"/><use transform="matrix(0.05,0,0,0.05,19,0)" xlink:href="#aQ"/><use transform="matrix(0.05,0,0,0.05,24,0)" xlink:href="#aR"/><use transform="matrix(0.05,0,0,0.05,27.950000000000003,0)" xlink:href="#bc"/><use transform="matrix(0.05,0,0,0.05,37.95,0)" xlink:href="#aP"/><use transform="matrix(0.05,0,0,0.05,47.95,0)" xlink:href="#aZ"/><use transform="matrix(0.05,0,0,0.05,57.95,0)" xlink:href="#bk"/><use transform="matrix(0.05,0,0,0.05,70.9,0)" xlink:href="#aY"/><use transform="matrix(0.05,0,0,0.05,80.9,0)" xlink:href="#aY"/><use transform="matrix(0.05,0,0,0.05,90.9,0)" xlink:href="#bl"/></g><g id="G"><use transform="matrix(0.05,0,0,0.05,0,0)" xlink:href="#aO"/><use transform="matrix(0.05,0,0,0.05,10,0)" xlink:href="#bf"/><use transform="matrix(0.05,0,0,0.05,19,0)" xlink:href="#aQ"/><use transform="matrix(0.05,0,0,0.05,24,0)" xlink:href="#aR"/><use transform="matrix(0.05,0,0,0.05,27.950000000000003,0)" xlink:href="#bc"/><use transform="matrix(0.05,0,0,0.05,37.95,0)" xlink:href="#aP"/><use transform="matrix(0.05,0,0,0.05,47.95,0)" xlink:href="#aZ"/><use transform="matrix(0.05,0,0,0.05,57.95,0)" xlink:href="#ba"/><use transform="matrix(0.05,0,0,0.05,67.95,0)" xlink:href="#aO"/><use transform="matrix(0.05,0,0,0.05,77.95,0)" xlink:href="#aS"/></g><path fill="#333" d="M135-194c53 0 70 44 70 98 0 56-19 98-73 100-31 1-45-17-59-34 3 33 2 69 2 105H25l-1-265h48c2 10 0 23 3 31 11-24 29-35 60-35zM114-30c33 0 39-31 40-66 0-38-9-64-40-64-56 0-55 130 0 130" id="bm"/><g id="H"><use transform="matrix(0.05,0,0,0.05,0,0)" xlink:href="#as"/><use transform="matrix(0.05,0,0,0.05,10.950000000000001,0)" xlink:href="#aV"/><use transform="matrix(0.05,0,0,0.05,15.950000000000001,0)" xlink:href="#aW"/><use transform="matrix(0.05,0,0,0.05,31.950000000000003,0)" xlink:href="#ap"/><use transform="matrix(0.05,0,0,0.05,41.95,0)" xlink:href="#bm"/><use transform="matrix(0.05,0,0,0.05,52.900000000000006,0)" xlink:href="#ar"/><use transform="matrix(0.05,0,0,0.05,59.900000000000006,0)" xlink:href="#aq"/><use transform="matrix(0.05,0,0,0.05,70.85000000000001,0)" xlink:href="#as"/><use transform="matrix(0.05,0,0,0.05,81.80000000000001,0)" xlink:href="#aT"/><use transform="matrix(0.05,0,0,0.05,92.75000000000001,0)" xlink:href="#an"/><use transform="matrix(0.05,0,0,0.05,102.75,0)" xlink:href="#ao"/><use transform="matrix(0.05,0,0,0.05,108.7,0)" xlink:href="#au"/></g><g id="I"><use transform="matrix(0.05,0,0,0.05,0,0)" xlink:href="#bd"/><use transform="matrix(0.05,0,0,0.05,10,0)" xlink:href="#aX"/><use transform="matrix(0.05,0,0,0.05,15.949999999999998,0)" xlink:href="#bc"/><use transform="matrix(0.05,0,0,0.05,25.950000000000003,0)" xlink:href="#ba"/><use transform="matrix(0.05,0,0,0.05,35.95,0)" xlink:href="#aN"/><use transform="matrix(0.05,0,0,0.05,45.95,0)" xlink:href="#bf"/><use transform="matrix(0.05,0,0,0.05,54.95,0)" xlink:href="#aQ"/><use transform="matrix(0.05,0,0,0.05,59.95,0)" xlink:href="#aZ"/><use transform="matrix(0.05,0,0,0.05,69.95,0)" xlink:href="#aP"/><use transform="matrix(0.05,0,0,0.05,79.95,0)" xlink:href="#aO"/><use transform="matrix(0.05,0,0,0.05,89.95,0)" xlink:href="#bi"/><use transform="matrix(0.05,0,0,0.05,104.9,0)" xlink:href="#aY"/></g><path d="M24 0v-261h32V0H24" id="bn"/><g id="J"><use transform="matrix(0.05,0,0,0.05,0,0)" xlink:href="#aO"/><use transform="matrix(0.05,0,0,0.05,10,0)" xlink:href="#aR"/><use transform="matrix(0.05,0,0,0.05,13.949999999999998,0)" xlink:href="#bb"/><use transform="matrix(0.05,0,0,0.05,22.95,0)" xlink:href="#bn"/><use transform="matrix(0.05,0,0,0.05,26.899999999999995,0)" xlink:href="#aY"/></g><g id="K"><use transform="matrix(0.05,0,0,0.05,0,0)" xlink:href="#ba"/><use transform="matrix(0.05,0,0,0.05,10,0)" xlink:href="#aY"/><use transform="matrix(0.05,0,0,0.05,20,0)" xlink:href="#bd"/><use transform="matrix(0.05,0,0,0.05,30,0)" xlink:href="#aO"/><use transform="matrix(0.05,0,0,0.05,40,0)" xlink:href="#aX"/><use transform="matrix(0.05,0,0,0.05,45.95,0)" xlink:href="#aQ"/><use transform="matrix(0.05,0,0,0.05,50.95,0)" xlink:href="#bi"/><use transform="matrix(0.05,0,0,0.05,65.9,0)" xlink:href="#aY"/><use transform="matrix(0.05,0,0,0.05,75.9,0)" xlink:href="#aP"/><use transform="matrix(0.05,0,0,0.05,85.9,0)" xlink:href="#aQ"/><use transform="matrix(0.05,0,0,0.05,90.9,0)" xlink:href="#aZ"/><use transform="matrix(0.05,0,0,0.05,100.9,0)" xlink:href="#aP"/><use transform="matrix(0.05,0,0,0.05,110.9,0)" xlink:href="#aO"/><use transform="matrix(0.05,0,0,0.05,120.9,0)" xlink:href="#bi"/><use transform="matrix(0.05,0,0,0.05,135.85,0)" xlink:href="#aY"/></g><path fill="#333" d="M25 0v-261h50V0H25" id="bo"/><path fill="#333" d="M135-194c87-1 58 113 63 194h-50c-7-57 23-157-34-157-59 0-34 97-39 157H25l-1-190h47c2 12-1 28 3 38 12-26 28-41 61-42" id="bp"/><g id="L"><use transform="matrix(0.05,0,0,0.05,0,0)" xlink:href="#as"/><use transform="matrix(0.05,0,0,0.05,10.950000000000001,0)" xlink:href="#aV"/><use transform="matrix(0.05,0,0,0.05,15.950000000000001,0)" xlink:href="#aW"/><use transform="matrix(0.05,0,0,0.05,31.950000000000003,0)" xlink:href="#ap"/><use transform="matrix(0.05,0,0,0.05,41.95,0)" xlink:href="#an"/><use transform="matrix(0.05,0,0,0.05,51.95,0)" xlink:href="#bo"/><use transform="matrix(0.05,0,0,0.05,56.95,0)" xlink:href="#aV"/><use transform="matrix(0.05,0,0,0.05,61.95,0)" xlink:href="#at"/><use transform="matrix(0.05,0,0,0.05,71.95,0)" xlink:href="#bp"/><use transform="matrix(0.05,0,0,0.05,82.9,0)" xlink:href="#ao"/><use transform="matrix(0.05,0,0,0.05,88.85000000000001,0)" xlink:href="#au"/></g><g id="M"><use transform="matrix(0.05,0,0,0.05,0,0)" xlink:href="#aA"/><use transform="matrix(0.05,0,0,0.05,9,0)" xlink:href="#aI"/><use transform="matrix(0.05,0,0,0.05,12.949999999999998,0)" xlink:href="#aD"/><use transform="matrix(0.05,0,0,0.05,16.9,0)" xlink:href="#aK"/><use transform="matrix(0.05,0,0,0.05,26.899999999999995,0)" xlink:href="#aE"/><use transform="matrix(0.05,0,0,0.05,36.9,0)" xlink:href="#aB"/><use transform="matrix(0.05,0,0,0.05,41.9,0)" xlink:href="#aC"/><use transform="matrix(0.05,0,0,0.05,51.900000000000006,0)" xlink:href="#aD"/><use transform="matrix(0.05,0,0,0.05,55.85,0)" xlink:href="#ay"/></g><path d="M101-234c-31-9-42 10-38 44h38v23H63V0H32v-167H5v-23h27c-7-52 17-82 69-68v24" id="bq"/><g id="N"><use transform="matrix(0.05,0,0,0.05,0,0)" xlink:href="#bq"/><use transform="matrix(0.05,0,0,0.05,5,0)" xlink:href="#aN"/><use transform="matrix(0.05,0,0,0.05,15,0)" xlink:href="#bn"/><use transform="matrix(0.05,0,0,0.05,18.95,0)" xlink:href="#bn"/><use transform="matrix(0.05,0,0,0.05,22.9,0)" xlink:href="#aP"/><use transform="matrix(0.05,0,0,0.05,32.9,0)" xlink:href="#aO"/><use transform="matrix(0.05,0,0,0.05,42.9,0)" xlink:href="#bi"/><use transform="matrix(0.05,0,0,0.05,57.85,0)" xlink:href="#aY"/></g><g id="O"><use transform="matrix(0.05,0,0,0.05,0,0)" xlink:href="#bb"/><use transform="matrix(0.05,0,0,0.05,9,0)" xlink:href="#aQ"/><use transform="matrix(0.05,0,0,0.05,14,0)" xlink:href="#aX"/><use transform="matrix(0.05,0,0,0.05,19.95,0)" xlink:href="#aR"/><use transform="matrix(0.05,0,0,0.05,23.9,0)" xlink:href="#aP"/><use transform="matrix(0.05,0,0,0.05,33.9,0)" xlink:href="#be"/></g><g id="P"><use transform="matrix(0.05,0,0,0.05,0,0)" xlink:href="#as"/><use transform="matrix(0.05,0,0,0.05,10.950000000000001,0)" xlink:href="#aV"/><use transform="matrix(0.05,0,0,0.05,15.950000000000001,0)" xlink:href="#aW"/><use transform="matrix(0.05,0,0,0.05,31.950000000000003,0)" xlink:href="#ap"/><use transform="matrix(0.05,0,0,0.05,41.95,0)" xlink:href="#bo"/><use transform="matrix(0.05,0,0,0.05,46.95,0)" xlink:href="#aq"/><use transform="matrix(0.05,0,0,0.05,57.900000000000006,0)" xlink:href="#an"/><use transform="matrix(0.05,0,0,0.05,67.9,0)" xlink:href="#am"/><use transform="matrix(0.05,0,0,0.05,77.9,0)" xlink:href="#ao"/><use transform="matrix(0.05,0,0,0.05,83.85000000000001,0)" xlink:href="#aV"/><use transform="matrix(0.05,0,0,0.05,88.85000000000001,0)" xlink:href="#aq"/><use transform="matrix(0.05,0,0,0.05,99.80000000000001,0)" xlink:href="#bp"/><use transform="matrix(0.05,0,0,0.05,110.75,0)" xlink:href="#ap"/><use transform="matrix(0.05,0,0,0.05,120.75,0)" xlink:href="#am"/><use transform="matrix(0.05,0,0,0.05,130.75,0)" xlink:href="#ar"/><use transform="matrix(0.05,0,0,0.05,137.75,0)" xlink:href="#at"/><use transform="matrix(0.05,0,0,0.05,147.75,0)" xlink:href="#am"/><use transform="matrix(0.05,0,0,0.05,157.75,0)" xlink:href="#au"/></g><g id="Q"><use transform="matrix(0.05,0,0,0.05,0,0)" xlink:href="#aL"/><use transform="matrix(0.05,0,0,0.05,10,0)" xlink:href="#aw"/><use transform="matrix(0.05,0,0,0.05,15.949999999999998,0)" xlink:href="#aK"/><use transform="matrix(0.05,0,0,0.05,25.950000000000003,0)" xlink:href="#aL"/><use transform="matrix(0.05,0,0,0.05,35.95,0)" xlink:href="#aC"/><use transform="matrix(0.05,0,0,0.05,45.95,0)" xlink:href="#aD"/><use transform="matrix(0.05,0,0,0.05,49.900000000000006,0)" xlink:href="#ay"/></g><g id="R"><use transform="matrix(0.05,0,0,0.05,0,0)" xlink:href="#aD"/><use transform="matrix(0.05,0,0,0.05,3.95,0)" xlink:href="#aE"/><use transform="matrix(0.05,0,0,0.05,13.949999999999998,0)" xlink:href="#aB"/></g><g id="S"><use transform="matrix(0.05,0,0,0.05,0,0)" xlink:href="#aF"/><use transform="matrix(0.05,0,0,0.05,12,0)" xlink:href="#aG"/></g><g id="T"><use transform="matrix(0.05,0,0,0.05,0,0)" xlink:href="#aO"/><use transform="matrix(0.05,0,0,0.05,10,0)" xlink:href="#aX"/><use transform="matrix(0.05,0,0,0.05,15.949999999999998,0)" xlink:href="#aY"/><use transform="matrix(0.05,0,0,0.05,25.950000000000003,0)" xlink:href="#aO"/></g></defs></g></svg>